<svg xmlns="http://www.w3.org/2000/svg" width="37.368" height="37.368" viewBox="0 0 37.368 37.368">
  <path id="Icon_material-account-circle" data-name="Icon material-account-circle" d="M21.684,3A18.684,18.684,0,1,0,40.368,21.684,18.691,18.691,0,0,0,21.684,3Zm0,5.605a5.605,5.605,0,1,1-5.605,5.605A5.6,5.6,0,0,1,21.684,8.605Zm0,26.531a13.453,13.453,0,0,1-11.21-6.016c.056-3.718,7.474-5.755,11.21-5.755,3.718,0,11.154,2.037,11.21,5.755a13.453,13.453,0,0,1-11.21,6.016Z" transform="translate(-3 -3)"/>
</svg>
