<svg xmlns="http://www.w3.org/2000/svg" width="33.962" height="21.048" viewBox="0 0 33.962 21.048">
  <g id="BlackContainer" transform="translate(0 -5.063)">
    <path id="Path_7" data-name="Path 7" d="M5.5,5.177.553,7.095A1.077,1.077,0,0,0,0,8.124V23.05a1.077,1.077,0,0,0,.553,1.029L5.5,26Z" transform="translate(0 0)"/>
    <path id="Path_8" data-name="Path 8" d="M32.878,7.1,7,5.063V26.111l25.878-2.038a1.117,1.117,0,0,0,1.085-1.057V8.158A1.117,1.117,0,0,0,32.878,7.1ZM12.551,20.894a1.131,1.131,0,0,1-1.19,1.061,1.131,1.131,0,0,1-1.19-1.061V10.28a1.131,1.131,0,0,1,1.19-1.061,1.131,1.131,0,0,1,1.19,1.061Zm6.344-.708a1.2,1.2,0,0,1-2.379,0v-9.2a1.2,1.2,0,0,1,2.379,0Zm6.344-.708a1.2,1.2,0,0,1-2.379,0V11.7a1.2,1.2,0,0,1,2.379,0Zm5.551-.354a1.2,1.2,0,0,1-2.379,0V12.4a1.2,1.2,0,0,1,2.379,0Z"/>
  </g>
</svg>
