<svg xmlns="http://www.w3.org/2000/svg" width="30.02" height="30.162" viewBox="0 0 30.02 30.162"><defs><style>.a{fill:#ff5252;}</style></defs><path class="a" d="M30.721,6.774l-9.2,9.253,9.2,9.2a.983.983,0,0,1,0,1.392l-4.176,4.175a.982.982,0,0,1-1.391,0L15.972,21.61,6.845,30.792a.983.983,0,0,1-1.392,0L1.278,26.617a.985.985,0,0,1,0-1.392L10.4,16.043,1.279,6.917a.985.985,0,0,1,0-1.392L5.454,1.35a.983.983,0,0,1,1.392,0l9.11,9.11,9.2-9.253a.982.982,0,0,1,1.391,0l4.176,4.175a.986.986,0,0,1,0,1.392Z" transform="translate(-0.99 -0.918)"/></svg>