<svg xmlns="http://www.w3.org/2000/svg" width="39.502" height="29.627" viewBox="0 0 39.502 29.627">
  <path id="Icon_material-contact-phone" data-name="Icon material-contact-phone" d="M36.21,4.5H3.292A3.3,3.3,0,0,0,0,7.792V30.835a3.3,3.3,0,0,0,3.292,3.292H36.21a3.287,3.287,0,0,0,3.275-3.292L39.5,7.792A3.3,3.3,0,0,0,36.21,4.5ZM13.167,9.438A4.938,4.938,0,1,1,8.23,14.376,4.931,4.931,0,0,1,13.167,9.438Zm9.876,19.751H3.292V27.543c0-3.292,6.584-5.1,9.876-5.1s9.876,1.811,9.876,5.1Zm6.337-6.584h2.7L34.564,25.9l-3.275,3.275A12.363,12.363,0,0,1,26.8,22.605a11.987,11.987,0,0,1,0-6.584,12.3,12.3,0,0,1,4.493-6.567l3.275,3.275-2.485,3.292h-2.7a9.693,9.693,0,0,0,0,6.584Z" transform="translate(0 -4.5)"/>
</svg>
