<svg xmlns="http://www.w3.org/2000/svg" width="32.368" height="25.894" viewBox="0 0 32.368 25.894">
  <path id="Icon_awesome-ship" data-name="Icon awesome-ship" d="M25.116,18.846l3.541-3.541a1.619,1.619,0,0,0-.649-2.685l-2.114-.679V4.855a1.618,1.618,0,0,0-1.618-1.618H21.039V1.214A1.214,1.214,0,0,0,19.825,0H12.542a1.214,1.214,0,0,0-1.214,1.214V3.237H8.092A1.618,1.618,0,0,0,6.474,4.855v7.086L4.36,12.62a1.619,1.619,0,0,0-.649,2.685l3.541,3.541a6.11,6.11,0,0,1-6.038,3.811A1.214,1.214,0,0,0,0,23.871v.809a1.214,1.214,0,0,0,1.214,1.214,9.328,9.328,0,0,0,7.245-3,4.863,4.863,0,0,0,4.488,3h6.474a4.863,4.863,0,0,0,4.488-3,9.328,9.328,0,0,0,7.245,3,1.214,1.214,0,0,0,1.214-1.214v-.809a1.214,1.214,0,0,0-1.214-1.214A6.111,6.111,0,0,1,25.116,18.846ZM9.71,6.474H22.657V10.9L16.679,8.979a1.618,1.618,0,0,0-.99,0L9.71,10.9Z"/>
</svg>
