<svg xmlns="http://www.w3.org/2000/svg" width="40.062" height="24.828" viewBox="0 0 40.062 24.828">
  <g id="worldwide-shipping" transform="translate(0 -5.063)">
    <path id="Path_7" data-name="Path 7" d="M5.5,5.177.553,7.443A1.333,1.333,0,0,0,0,8.659V26.3a1.333,1.333,0,0,0,.553,1.216L5.5,29.777Z" transform="translate(0 0)" fill="#fff"/>
    <path id="Path_8" data-name="Path 8" d="M38.732,7.467,7,5.063V29.891l31.732-2.4a1.345,1.345,0,0,0,1.33-1.247V8.714a1.345,1.345,0,0,0-1.33-1.247ZM13.807,23.737a1.368,1.368,0,0,1-1.459,1.252,1.368,1.368,0,0,1-1.459-1.252V11.218a1.368,1.368,0,0,1,1.459-1.252,1.368,1.368,0,0,1,1.459,1.252Zm7.779-.835a1.476,1.476,0,0,1-2.917,0V12.052a1.476,1.476,0,0,1,2.917,0Zm7.779-.835a1.476,1.476,0,0,1-2.917,0V12.887a1.476,1.476,0,0,1,2.917,0Zm6.807-.417a1.476,1.476,0,0,1-2.917,0V13.721a1.476,1.476,0,0,1,2.917,0Z" fill="#fff"/>
  </g>
</svg>
